# xmcd
#
# Track frame offsets: 
#        150
#        10725
#        26517
#        42595
#        55054
#        74134
#        88362
#        96241
#        101969
#        112812
#        136555
#        147746
#        160922
#
# Disc length: 2187 seconds
#
# Revision: 0
# Processed by: cddbd v1.5.2PL0 Copyright (c) Steve Scherf et al.
# Submitted via: ExactAudioCopy v1.2
#
DISCID=b908890d
DTITLE=Mighty Mo Rodgers - The Virus
DYEAR=2018
DGENRE=Blues
TTITLE0=The Virus (feat. The Starlights)
TTITLE1=Troubled Times (feat. The Starlights)
TTITLE2=Bullets with Names (feat. The Starlights and General)
TTITLE3=A Mother's Prayer (feat. Margarett Floyd)
TTITLE4=All Money Ain't Good Money (feat. The Starlights and Margarett F
TTITLE4=loyd)
TTITLE5=Two Wings and a Biscuit (feat. The Starlights)
TTITLE6=The Virus, Pt. 2 (feat. The Starlights)
TTITLE7=The Call
TTITLE8=Slave to a Word
TTITLE9=Rites of Passage (feat. The Starlights)
TTITLE10=400 Years of Tears (feat. The Starlights)
TTITLE11=Beautiful Struggle (feat. The Starlights)
TTITLE12=Rpm
EXTD=
EXTT0=
EXTT1=
EXTT2=
EXTT3=
EXTT4=
EXTT5=
EXTT6=
EXTT7=
EXTT8=
EXTT9=
EXTT10=
EXTT11=
EXTT12=
PLAYORDER=
